<svg width="24" height="24" viewBox="0 0 24 24" fill="none" xmlns="http://www.w3.org/2000/svg">
<path fill-rule="evenodd" clip-rule="evenodd" d="M6.19849 2.30957L11.7954 7.90647L9.4831 10.2188C10.7199 11.7766 12.1644 13.2253 13.7195 14.4677L16.038 12.1491L21.6949 17.806L18.6628 20.838C18.018 21.4828 17.0719 21.841 16.1002 21.6463C9.50626 20.3257 3.67872 14.4982 2.35812 7.90425C2.16351 6.93252 2.52164 5.98642 3.16642 5.34165L6.19849 2.30957ZM6.19849 5.138L4.58063 6.75586C4.35148 6.98501 4.27108 7.27137 4.31918 7.5115C5.4813 13.3141 10.6903 18.5232 16.493 19.6853C16.7331 19.7334 17.0195 19.653 17.2486 19.4238L18.8665 17.806L16.038 14.9775L13.9008 17.1148L13.2075 16.5985C11.0066 14.9592 8.984 12.931 7.35238 10.7263L6.83976 10.0337L8.96697 7.90647L6.19849 5.138Z" fill="black" fill-opacity="0.9"/>
</svg>
