<svg width="24" height="24" viewBox="0 0 24 24" fill="none" xmlns="http://www.w3.org/2000/svg">
<path fill-rule="evenodd" clip-rule="evenodd" d="M12 2C15.86 2 19 5.14 19 9C19 12.52 16.39 15.44 13 15.92V22H11V15.92C7.61 15.43 5 12.52 5 9C5 5.14 8.14 2 12 2ZM7 9C7 11.76 9.24 14 12 14C14.76 14 17 11.76 17 9C17 6.24 14.76 4 12 4C9.24 4 7 6.24 7 9ZM13.5 9C13.5 9.82843 12.8284 10.5 12 10.5C11.1716 10.5 10.5 9.82843 10.5 9C10.5 8.17157 11.1716 7.5 12 7.5C12.8284 7.5 13.5 8.17157 13.5 9Z" fill="black" fill-opacity="0.9"/>
</svg>
