<svg width="24" height="24" viewBox="0 0 24 24" fill="none" xmlns="http://www.w3.org/2000/svg">
<path fill-rule="evenodd" clip-rule="evenodd" d="M17 12.0858L20.7929 8.29289L22.2071 9.70711L17.7071 14.2071C17.3166 14.5976 16.6834 14.5976 16.2929 14.2071L13.7929 11.7071L15.2071 10.2929L17 12.0858Z" fill="white" fill-opacity="0.95"/>
<path fill-rule="evenodd" clip-rule="evenodd" d="M9 5C7.89543 5 7 5.89543 7 7C7 8.10457 7.89543 9 9 9C10.1046 9 11 8.10457 11 7C11 5.89543 10.1046 5 9 5ZM5 7C5 4.79086 6.79086 3 9 3C11.2091 3 13 4.79086 13 7C13 9.20914 11.2091 11 9 11C6.79086 11 5 9.20914 5 7Z" fill="white" fill-opacity="0.95"/>
<path fill-rule="evenodd" clip-rule="evenodd" d="M9 15C5.68629 15 3 17.6863 3 21H1C1 16.5817 4.58172 13 9 13C13.4183 13 17 16.5817 17 21H15C15 17.6863 12.3137 15 9 15Z" fill="white" fill-opacity="0.95"/>
</svg>
