<svg width="24" height="24" viewBox="0 0 24 24" fill="none" xmlns="http://www.w3.org/2000/svg">
<path fill-rule="evenodd" clip-rule="evenodd" d="M8 6H4.14158L2.36561 17.5438C2.08603 19.3611 3.49207 21 5.33072 21H18.6683C20.5069 21 21.913 19.3611 21.6334 17.5438L19.8574 6H16C16 3.79086 14.2091 2 12 2C9.79086 2 8 3.79086 8 6ZM10 6C10 4.89543 10.8954 4 12 4C13.1046 4 14 4.89543 14 6H10ZM4.93434 14L5.85742 8H18.1416L19.0647 14H4.93434ZM4.62665 16H19.3724L19.6567 17.8479C19.7498 18.4537 19.2812 19 18.6683 19H5.33072C4.71784 19 4.24916 18.4537 4.34235 17.8479L4.62665 16Z" fill="white"/>
</svg>
